<svg
  version="1.1"
  viewBox="0.0 0.0 520.0 520.0"
  fill="none"
  stroke="none"
  stroke-linecap="square"
  stroke-miterlimit="10"
  xmlns:xlink="http://www.w3.org/1999/xlink"
  xmlns="http://www.w3.org/2000/svg"
>
  <clipPath id="p.0">
    <path d="m0 0l520.0 0l0 520.0l-520.0 0l0 -520.0z" clip-rule="nonzero" />
  </clipPath>
  <g clip-path="url(#p.0)">
    <!-- Semi-circle (outer-most) -->
    <path
      fill="#ffe599"
      d="m27.136568 315.49667l0 0c0.048236847 -153.1673 103.98497 -277.39838 232.36633 -277.73746c128.38138 -0.33907318 232.7781 123.34178 233.39474 276.5073l-232.87921 1.3345337z"
      fill-rule="evenodd"
    />

    <!-- Semi-circle 1 -->
    <path
      fill="#ffd966"
      d="m77.505646 315.49313l0 0c0.03780365 -120.03879 81.49054 -217.39998 182.09991 -217.66571c100.609406 -0.26572418 182.4226 96.66425 182.90585 216.70166l-182.50183 1.0458374z"
      fill-rule="evenodd"
    />

    <!-- Semi-circle 0 (inner-most) -->
    <path
      fill="#f1c232"
      d="m134.42595 315.52817l0 0c0.026016235 -82.60426 56.077927 -149.60301 125.312546 -149.78587c69.23459 -0.18284607 125.53458 66.519165 125.867096 149.12245l-125.58908 0.71969604z"
      fill-rule="evenodd"
    />

    <!-- W -->
    <path
      fill="#ff9800"
      d="m202.39597 327.73157l0 0c0 -83.25229 25.789383 -150.7416 57.602203 -150.7416l0 0c15.277069 0 29.928406 15.881668 40.730896 44.151184c10.802521 28.269531 16.871307 66.61125 16.871307 106.59041l0 0c0 83.25226 -25.789398 150.74158 -57.602203 150.74158l0 0c-31.81282 0 -57.602203 -67.48932 -57.602203 -150.74158z"
      fill-rule="evenodd"
    />
    <path
      fill="#ff9800"
      d="m390.45502 296.24957l0 0c0 -83.25229 25.789368 -150.74158 57.602203 -150.74158l0 0c15.277039 0 29.928406 15.881653 40.730896 44.151184c10.802521 28.269516 16.871307 66.61124 16.871307 106.59039l0 0c0 83.25226 -25.789398 150.74158 -57.602203 150.74158l0 0c-31.812836 0 -57.602203 -67.48932 -57.602203 -150.74158z"
      fill-rule="evenodd"
    />
    <path
      fill="#ff9800"
      d="m14.339688 296.24957l0 0c0 -83.25229 25.789387 -150.74158 57.6022 -150.74158l0 0c15.277054 0 29.928406 15.881653 40.73091 44.151184c10.8025055 28.269516 16.8713 66.61124 16.8713 106.59039l0 0c0 83.25226 -25.78939 150.74158 -57.60221 150.74158l0 0c-31.812813 0 -57.6022 -67.48932 -57.6022 -150.74158z"
      fill-rule="evenodd"
    />
    <path
      fill="#ff9800"
      d="m505.64868 305.6166l0 0c-0.12124634 67.46524 -109.278656 122.224335 -244.35449 122.581085c-135.0758 0.3567505 -245.3866 -53.822754 -246.93633 -121.28354l245.63737 -1.4076538z"
      fill-rule="evenodd"
    />
  </g>
</svg>
