<svg width="171" height="194" viewBox="0 0 171 194" fill="none" xmlns="http://www.w3.org/2000/svg">
<g clip-path="url(#clip0_2739_23201)">
<path d="M153.996 109.469C153.553 107.465 152.342 105.714 150.624 104.592C148.933 103.53 146.562 103.045 144.386 106.118C139.427 113.108 138.86 113.737 138.86 113.737C138.86 113.737 132.787 122.048 128.281 125.78C123.97 129.505 119.454 132.985 114.753 136.204C102.43 143.972 87.9932 147.709 73.4488 146.896C69.6583 146.731 66.0401 145.267 63.2 142.751C60.3577 140.237 58.4649 136.823 57.8384 133.08C56.7072 127.191 56.5158 121.16 57.2714 115.212C58.0314 107.465 60.2716 99.9358 63.8703 93.0335C69.597 81.0233 76.6895 69.7134 85.0071 59.328C89.1416 54.3892 93.4617 49.6154 98.0396 45.089C100.625 42.2748 103.999 40.3057 107.721 39.4388C108.234 39.709 108.687 40.0809 109.051 40.5317C109.413 40.9863 109.679 41.5086 109.835 42.068C109.986 42.6288 110.025 43.214 109.948 43.7899C109.867 44.3628 109.671 44.9134 109.371 45.4086C106.123 52.8116 102.762 60.1838 99.8338 67.7312C97.0064 73.8339 95.9181 80.5986 96.689 87.2802C97.7412 91.9434 99.9988 96.2489 103.236 99.7663C106.469 103.287 110.568 105.9 115.124 107.345C116.66 107.872 118.341 107.776 119.806 107.077C121.269 106.369 122.395 105.113 122.94 103.581C126.208 96.5185 129.384 89.4454 132.58 82.362C136.065 75.5252 138.747 68.3078 140.571 60.854C142.355 54.0251 141.447 46.7718 138.035 40.5936C134.31 34.5377 129.341 29.3432 123.455 25.3544C115.001 19.498 105.907 15.8583 95.3589 17.8276C87.2102 19.3764 79.4421 22.5005 72.4899 27.0247C63.0837 33.0976 54.6767 40.5932 47.5691 49.2442C40.7137 57.6015 34.7333 66.6396 29.7214 76.2168C23.4013 87.6381 19.1859 100.103 17.2764 113.016C16.0511 121.261 16.285 129.658 17.9672 137.823C20.071 148.873 25.9858 158.835 34.6808 165.971C43.5168 173.006 54.3768 177.021 65.6643 177.426C71.7488 177.597 77.8372 177.287 83.8728 176.498C92.753 175.366 101.372 172.711 109.35 168.652C114.454 166.239 119.3 163.218 124.198 160.486C124.198 160.486 145.654 145.422 151.469 129.121C155.119 118.903 154.769 112.686 153.996 109.469Z" fill="#000000" stroke="#000000" stroke-width="6"/>
<path d="M170.038 105.641C168.617 99.423 164.791 94.0215 159.397 90.6179C156.147 88.5436 152.395 87.3892 148.54 87.2773C151.978 80.1083 154.666 72.6036 156.562 64.8825C159.393 53.9986 157.927 42.4427 152.468 32.6102L152.283 32.27L152.077 31.94C147.156 23.9086 140.575 17.0218 132.775 11.7415C122.114 4.36934 111.752 0.78125 101.091 0.78125C98.1325 0.785523 95.1811 1.06511 92.2749 1.61641C82.0313 3.54811 72.2654 7.46777 63.5288 13.154C52.689 20.1613 42.9991 28.8043 34.8034 38.776C27.2786 47.9579 20.7045 57.8794 15.1822 68.3881C7.95182 81.4867 3.13251 95.7772 0.953555 110.579C-0.552048 120.695 -0.272949 130.997 1.77833 141.016C4.63507 155.81 12.5666 169.142 24.204 178.712L24.4 178.877C36.0191 188.078 50.265 193.343 65.0754 193.91H65.1785C66.4261 193.941 67.6633 193.962 68.9109 193.962C74.6099 193.959 80.3028 193.59 85.9545 192.858C96.6347 191.499 107.003 188.318 116.608 183.455C120.722 181.496 124.465 179.341 128.084 177.248C129.465 176.454 130.847 175.66 132.229 174.887L132.971 174.474L133.672 173.979C136.312 172.134 159.634 155.307 166.996 134.665C170.976 123.54 171.987 113.765 170.038 105.641ZM151.468 129.118C145.653 145.419 124.197 160.483 124.197 160.483C119.299 163.215 114.453 166.236 109.349 168.649C101.371 172.708 92.7519 175.363 83.8717 176.495C77.8361 177.284 71.7477 177.594 65.6632 177.423C54.3757 177.019 43.5157 173.003 34.6796 165.968C25.9847 158.832 20.0699 148.87 17.9661 137.82C16.2838 129.655 16.05 121.258 17.2753 113.013C19.1847 100.1 23.4002 87.6352 29.7203 76.2139C34.7321 66.6367 40.7126 57.5986 47.5679 49.2413C54.6755 40.5903 63.0825 33.0947 72.4888 27.0218C79.4409 22.4976 87.209 19.3735 95.3578 17.8247C105.906 15.8554 115 19.4951 123.454 25.3515C129.339 29.3403 134.309 34.5348 138.034 40.5907C141.446 46.7689 142.354 54.0222 140.57 60.8511C138.746 68.3049 136.064 75.5223 132.579 82.3591C129.383 89.4425 126.207 96.5156 122.939 103.578C122.394 105.11 121.268 106.366 119.804 107.074C118.339 107.773 116.658 107.869 115.123 107.342C110.567 105.897 106.468 103.284 103.235 99.7634C99.9977 96.246 97.7401 91.9405 96.6879 87.2773C95.917 80.5957 97.0053 73.831 99.8327 67.7283C102.761 60.1809 106.122 52.8087 109.37 45.4057C109.67 44.9105 109.866 44.3599 109.947 43.787C110.024 43.2111 109.985 42.6259 109.834 42.0651C109.678 41.5057 109.412 40.9834 109.05 40.5288L109.04 40.5185C108.978 40.4463 108.927 40.3844 108.865 40.3226C108.571 40.0383 108.209 39.8348 107.813 39.7318C107.417 39.6288 107.002 39.6299 106.607 39.7349C106.575 39.7367 106.544 39.7437 106.514 39.7555C106.462 39.7761 106.4 39.7864 106.349 39.807C106.112 39.8792 105.885 39.9514 105.668 40.0339C105.225 40.1988 104.782 40.3741 104.349 40.5597C104.194 40.6216 104.06 40.6937 103.916 40.7659C103.792 40.8278 103.679 40.8897 103.555 40.9515C102.632 41.469 101.755 42.0658 100.936 42.7353C99.3176 43.9895 97.7816 45.3464 96.3373 46.7976C96.2239 46.9111 96.1104 47.0142 96.0073 47.1276C95.3475 47.7978 94.6979 48.4783 94.0586 49.1691C93.6874 49.5403 93.337 49.9115 92.9967 50.2826C92.0378 51.3034 91.0995 52.3242 90.1613 53.3655C89.4808 54.1182 88.8105 54.8812 88.1403 55.6545L88.1095 55.6854C87.7692 56.0772 87.4187 56.4793 87.0784 56.8815C86.3773 57.6857 85.6865 58.5002 85.006 59.3251C76.6883 69.7105 69.5959 81.0204 63.8691 93.0306C60.2704 99.9329 58.0303 107.462 57.2703 115.209C56.5147 121.157 56.706 127.188 57.8373 133.077C58.4638 136.82 60.3566 140.234 63.1989 142.749C66.0389 145.264 69.6572 146.728 73.4476 146.893C87.9921 147.706 102.429 143.969 114.752 136.201C119.453 132.983 123.969 129.502 128.28 125.777C132.785 122.045 138.858 113.734 138.858 113.734C138.858 113.734 139.425 113.105 144.385 106.115C146.56 103.042 148.932 103.527 150.623 104.589C152.341 105.711 153.552 107.462 153.994 109.466C154.768 112.683 155.118 118.9 151.468 129.118Z" fill="#000000"/>
</g>
<defs>
<clipPath id="clip0_2739_23201">
<rect width="171" height="193.18" fill="white" transform="translate(0 0.785156)"/>
</clipPath>
</defs>
</svg>
