<svg viewBox="0 0 700 786" fill="none" xmlns="http://www.w3.org/2000/svg" class="h-7 w-auto text-foreground md:h-8" aria-label="Zo icon"><path d="M646.283 5.92188C650.86 5.92188 654.579 9.6321 654.514 14.2086C653.295 100.151 629.819 204.376 372.038 206.598C367.462 206.638 363.591 210.358 363.577 214.935C363.445 256.337 361.776 275.786 342.381 284.922L379.87 356.978C407.915 356.984 443.821 363.103 465.999 385.953C472.707 382.598 490.979 375.89 510.395 375.89C534.665 375.89 566.63 406.817 566.63 458.243V622.732C568.998 631.513 577.285 651.382 591.492 660.617L579.653 673.935C552.719 669.003 498.852 645.285 498.852 589.879V443.668C498.589 437.194 495.162 423.259 483.991 414.077C489.692 420.397 495.099 436.135 489.381 468.233C482.04 509.433 432.455 528.415 408.58 532.756L388.749 574.488L426.634 612.373V630.131L328.075 728.691L341.098 741.714L328.075 754.736H265.624V736.978L375.727 626.876L316.236 567.385L298.773 584.847L312.092 598.166V626.876L216.049 722.919L225.076 731.946L212.053 744.969H153.154V731.946L268.88 616.22L228.627 575.968C223.892 572.022 214.421 559.749 214.421 542.227C214.421 524.705 221.375 511.446 224.853 507.006L273.615 458.243L187.191 416.734H157.002L138.607 371.746H120.634L91.5914 440.412L101.655 449.883H129.772L101.655 495.463L58.1464 449.883L94.7188 350.14L74.4249 304.264L41.5718 390.392H69.6893L41.5718 430.349L5.16699 390.392L52.5228 258.684H104.614L125.628 304.264C132.732 288.38 146.939 249.864 146.939 222.871C146.939 195.878 126.023 164.663 115.565 152.429L96.9594 192.09L110.238 206L77.0887 239.149L48.9712 211.032V58.0133C52.5023 57.541 56.582 57.1299 61.1061 56.8254V26.6401C68.6041 24.9629 87.803 21.6085 104.614 21.6085C125.628 21.6085 205.245 27.5279 249.642 89.9785C277.823 129.62 293.457 159.957 300.388 176.465C301.185 155.119 301.218 129.158 301.08 97.6871C300.859 47.0144 341.808 5.92188 392.481 5.92188H646.283Z" fill="currentColor"></path><path d="M91.5915 128.157C91.5915 135.185 85.8934 140.883 78.8646 140.883C71.8357 140.883 66.1377 135.185 66.1377 128.157C66.1377 121.128 71.8357 115.43 78.8646 115.43C85.8934 115.43 91.5915 121.128 91.5915 128.157Z" fill="currentColor"></path></svg>